<?xml version="1.0" standalone="no"?>
<!DOCTYPE svg PUBLIC "-//W3C//DTD SVG 20010904//EN"
 "http://www.w3.org/TR/2001/REC-SVG-20010904/DTD/svg10.dtd">
<svg version="1.0" xmlns="http://www.w3.org/2000/svg"
 width="235.000000pt" height="194.000000pt" viewBox="0 0 235.000000 194.000000"
 preserveAspectRatio="xMidYMid meet">

<g transform="translate(0.000000,194.000000) scale(0.100000,-0.100000)"
fill="hsl(234, 64%, 66%)" stroke="none">
<path d="M856 1582 c-652 -163 -711 -179 -729 -203 l-19 -26 114 -458 c106
-429 115 -459 141 -479 l28 -21 697 173 c383 96 711 180 729 187 17 8 34 24
38 35 4 14 -34 188 -105 473 -96 387 -116 455 -137 475 -13 12 -29 22 -36 21
-7 0 -331 -80 -721 -177z m458 -64 c-21 -24 -107 -116 -192 -205 l-153 -161
-252 84 c-139 46 -259 87 -267 90 -12 5 855 231 894 234 4 0 -9 -19 -30 -42z
m307 -312 c46 -184 81 -337 79 -339 -5 -4 -1250 -316 -1250 -313 -12 37 -167
672 -165 675 2 1 161 -49 354 -114 197 -65 358 -114 369 -111 10 3 130 125
267 271 138 145 253 264 256 265 4 0 44 -151 90 -334z"/>
<path d="M1680 505 l0 -75 275 0 275 0 0 75 0 75 -275 0 -275 0 0 -75z"/>
<path d="M1180 255 l0 -75 525 0 525 0 0 75 0 75 -525 0 -525 0 0 -75z"/>
</g>
</svg>
